<svg xmlns="http://www.w3.org/2000/svg" viewBox="0 0 1254 1254"><path d="M604.1 91c-6.4 1-14.1 3.8-14.1 5.1 0 .6-.5.7-1 .4-1.1-.7-15.4 4-18 5.9-.8.6-.2-.6 1.3-2.7 4.9-6.6 3.9-7.1-13.1-6.4-41.8 1.5-84.1 19.6-124.7 53.2-11.4 9.4-32.5 30.4-40.1 39.9-12.2 15.2-21.5 33.5-26.4 52.1-2.3 8.9-5 28-5 35.4 0 4.2-.6 5.6-5.1 11.5-9.6 12.7-12 21.6-7.9 29.5 1.9 3.8 7.2 9.1 9.1 9.1.5 0 .9 2.8 1 6.2 0 3.5.4 8.5.8 11.1l.8 4.8-3.8 2.2c-2.2 1.2-3.9 2.8-3.9 3.5 0 1.7 4.7 3.4 8.8 3 3.2-.2 3.4 0 5.7 5.6 1.3 3.2 3.4 7.4 4.8 9.4 1.8 2.8 2.3 4.6 1.9 7.4-.3 2.9.3 5 2.6 9.2 1.7 2.9 2.9 5.6 2.6 5.8-.2.3-.9 6.3-1.4 13.4-1.9 23.3-8.7 52.9-27.1 117.4-14.8 51.9-25.6 86.1-52 165.5-12.6 37.9-24.2 74.1-25.9 80.4-6 23.2-6.1 37.3-.5 53.4 5.7 16.6 20.2 30.2 33.4 31.5 7.2.7 7.8-.7 5.1-11.7l-2.3-8.9 5.8-7.1c6.6-8 14.5-14.2 22.5-17.9 3-1.3 15-4.8 26.6-7.8 25.5-6.5 36.9-10.5 52.3-18.4 14.4-7.5 26.7-16.5 39.3-29l9.8-9.5.5 4.5c4.9 37.3 18.5 70.4 39.2 95.2 6.7 8 11 11.8 12.9 11.1.6-.2 3.8 3.2 7.2 7.6 15.8 20.4 41.5 43.5 65.6 58.9 7.4 4.7 7.7 5.1 16.2 19.3 4.8 7.9 12.9 20.7 18 28.3l9.4 13.9v6.7c0 11.6-5.6 36.7-10.7 48.2-3.3 7.4-7.9 10.5-18.2 12.4-4.2.7-23.6 2-43.1 2.9-46.9 1.9-70.3 4.1-83.2 7.6-3.8 1-8.8 4.8-8.8 6.7 0 2.6 4.4 5 12.4 6.7 10.7 2.2 10.4 2.8-5.1 10.1-12 5.6-15.3 8.6-13.4 12.3.6 1.1 1.9 2.2 3 2.6 1 .3 10.3.4 20.7.3 13.8-.2 19.9.1 22.7 1 4 1.5 4.3 2.2 2.6 7.1-.9 2.7-.8 3.5.6 5.1 3.4 3.8 10.3 2.7 41.1-6.5 10.1-3 18.8-5.5 19.3-5.5.6 0 .8.6.5 1.3-1.4 3.7 5.2 6.6 15.1 6.7l5 .1-12.5 6.4c-12 6.1-18 10.8-18 14 0 .8.9 2.4 2.1 3.6 1.9 1.9 2.7 2 21.2 1.3 16.3-.6 20.1-.4 24.7 1 7.5 2.2 14.2 7.4 17 13 3.1 6.5 4.5 7.6 9.5 7.6 8.8 0 20.6-4.6 73.8-28.9 15.9-7.2 34.3-15.4 41-18.2 22.4-9.4 25.7-11.7 25.7-18.2 0-4.3-2.4-7.2-11.5-13.7-6.8-4.9-8-8.7-6.5-20.5 1.4-10.3 4.5-22.8 9.5-38.4 2.6-8 3.5-12.5 3.5-17.7v-6.9l2.4 3 2.4 3 2.4-2.2c1.3-1.3 4.4-5.9 6.7-10.4l4.4-8.2 16.6.6c17.6.6 29.6 2.3 45.1 6.2 16.5 4.3 20.2 5.9 33.5 14.6 19.8 13 26.5 16.8 46.3 26.7 20.8 10.3 24.3 11.7 27.9 10.8 2.2-.6 2.5-1.1 2.1-4.4l-.3-3.8 5.5 2.3c9.3 3.8 15.8 2.6 13.1-2.5-.6-1.1 2.4 0 9 3.2 10.7 5.4 17.2 6.5 19.2 3.4 2.3-3.6-13.4-30.8-31.7-54.8-4.4-5.8-8.8-12.1-9.7-14-1-1.9-5.7-7.8-10.6-13.1-17.6-19.2-16.7-20.4 2-2.6 20.9 20 30.7 30.2 30.7 32.1 0 1.6 11.1 10.8 15.2 12.7 8.9 4 7.6-7.6-3.7-33.3l-4.3-9.8 9.2 8.6c11.9 11.2 16.1 14.1 18.1 12.4.8-.7 1.5-2.6 1.5-4.2 0-6.9-6.4-26.6-14.4-44.8-2.8-6.3-3.5-9.2-4-18-.8-12-3.5-27.1-7.2-39.7-1.8-6.2-2.6-11.8-2.9-19.7-.2-6.1-1.3-15.3-2.4-20.4-5.1-23.3-17.7-52.9-32.2-76.2-1.9-3-5.2-9.8-7.2-15-7.9-20.4-22.9-46.6-38.4-67.4-27-36.1-61.7-67.1-101.8-91.1-37.6-22.4-90.4-41.7-127.8-46.5-9.6-1.3-29.3-1.8-42.8-1-10 .5-10.7.2-14-6.8-3-6.5-3.7-21.1-1.5-34.7 3.8-23.3 9.5-40.8 24.2-75.2 13.9-32.3 18.6-45.2 23.3-63.5 9.1-35.3 10.3-66.2 4-98.3-3.8-19.1-11.4-39.6-19.1-51.7l-3.7-5.6 3.7 1.5c2 .8 7.6 3.5 12.5 5.9 10.1 5.1 11.1 4.7 8.4-4-4.3-13.4-20.2-32.7-35-42.4l-7.5-4.9 6.6-.7c3.7-.3 11.1-.6 16.5-.6 6.5 0 9.7-.4 9.7-1.1 0-2.6-4.7-8.4-10.8-13.5-13.4-11-30.4-17.2-50-18.1l-11.2-.6 2.9-2.1c1.6-1.2 5.7-4.3 9.2-7 12.3-9.5 13.8-11.5 10-13.5-2.7-1.5-14.7-2.1-21-1.1M586 98.4c-1.4.7-3.6 1.6-5 2-1.4.3-.7-.3 1.5-1.4 4.5-2.2 7.4-2.7 3.5-.6m22.4 3.5c-6.9 4.6-26.4 21.9-26.4 23.3 0 .7 1.3.7 3.8.2 2-.5 11.6-.9 21.2-.8 16 .1 18.3.3 26.3 2.7 8.5 2.6 21.1 8.5 27.2 12.7l3 2-14-.2c-13.6-.2-33.6 2.1-35.9 4.2-.5.5 1.1 1.4 3.5 2 11.2 2.8 25 10.3 36.4 19.7 6.4 5.3 17.6 17.7 20 22.3 1.2 2.3.5 2.1-9.1-2.6-9.9-4.9-25.2-10-27.7-9.1-.6.2.8 1.8 3.2 3.5 6.9 5 18.4 24.4 25.7 43.2 3.7 9.6 7.6 24.6 9.6 36.5 1.9 12.1 1.6 49.4-.5 62-3.9 22.6-12.1 48.5-24.2 76.5-15.9 36.7-20.5 49.5-24.9 68.7-3.8 16.6-4.9 26.3-4.4 39.1.4 10.1.8 12.5 3.2 17.9 3.2 7.1 8.9 12.9 16.3 16.7 5.4 2.7 16.4 5.9 17.3 4.9.3-.3.1-.7-.5-1-.5-.2-3.5-1.9-6.5-3.8l-5.5-3.5h16.2c19.7 0 33.6 1.8 54.3 7 83.8 21.2 155.5 69.8 202.3 137.2 5.6 8 16.9 26.4 20.6 33.6.7 1.3-4.1-3.2-10.6-9.9-11.9-12.3-27.6-26.5-41.3-37.5-13.1-10.6-13.9-10.1-2 1.1 22.6 21.3 39 39.3 53 58 23 30.6 36.7 56.3 45.3 84.5 5.4 17.7 5.4 18.5-.1 9.5-10-16.5-32.2-46.6-42.7-58-5.8-6.3-5.2-5.2 6.1 11.5 27.9 41.2 45.8 80.8 52.3 115.4l.9 4.8-3.5-3.4c-5-4.8-16.1-19.8-27-36.6-21.6-33.4-26.8-41.2-27.6-41.2-.5 0 .4 2.1 1.9 4.8 15 26.2 29.8 57.3 34.8 73.1 3 9.4 5.3 21.7 4.3 22.7-4 4-26.2-19.4-44.7-47.1-11-16.5-25.3-36.6-25.7-36.2-.2.3 4.2 8.5 9.7 18.3 19.7 34.9 29.6 56.8 30.2 67.4.3 4.4.2 4.5-2.6 4.3-3.5-.3-14.9-7-21.2-12.6-8.9-7.8-23.8-25.3-38.2-44.7-8-10.7-14.9-20-15.5-20.5-1.7-1.8 2.2 5.2 13.2 23.8 21.1 35.7 25.6 45 24.9 51.3-.3 2.6-.6 2.9-3.7 2.7-4-.2-13.1-4.8-22.1-11.1-13.5-9.6-33.3-30.7-49.8-53-3.4-4.6-6.2-8-6.2-7.6 0 .5 5.2 9.9 11.5 20.9 11.1 19.4 16.9 32.3 15.8 35.1-.9 2.3-5.5 1.6-12.8-2-17.8-8.6-39.6-28.7-58.5-53.9-2.3-3.2-4.5-5.5-4.7-5.3-.3.3 1.6 3.7 4.2 7.7 6.1 9.4 13.4 22.9 14.5 27 2 6.8-1.7 7.1-13 1.3-19.5-10.2-46.8-37.8-67.9-68.7-1.8-2.7-3.5-4.7-3.7-4.4-.2.2 2.9 7.3 7 15.8 8.1 16.9 10.1 22.3 9 24-3.2 5.2-28.6-12.6-48-33.7-49.2-53.6-74.2-112.7-69.5-164.8 1.4-16.1 4.2-27 10.1-39.2 5.5-11.3 11.1-17.3 20.3-21.8 10.4-5.1 28-5.3 46-.6 3.9 1 7.3 1.7 7.5 1.5.7-.7-10.9-5.5-18.1-7.5-36.8-10.2-61.5 7.7-70.9 51.5-1.9 9.3-2.3 13.7-2.2 29 0 12.3.6 21 1.8 27.5 7.2 40.3 27.4 81 58.8 118.7 37.7 45.3 77.3 79.5 94 81.1 4.7.4 4.8.4 4.8-2.4 0-1.6-1-4.7-2.1-6.9-1.8-3.3-.4-2.3 8.9 6.7 13 12.4 30.8 25.4 43.9 32 11.1 5.5 17 6.9 18.9 4.3 1.1-1.5 1-2.3-.3-4.9-1.2-2.4-1.3-2.8-.2-2 21.8 17.3 37.1 26.8 50.8 31.5 7.1 2.5 10.8 2.5 11.6-.1.5-1.7 1.6-1.2 9.7 5 9.6 7.3 20.8 13.8 20.8 12.1 0-.6-3.3-3.3-7.2-6-16.6-11.4-22.7-16.2-24.9-19.3-2-2.8-1.2-2.3 5.7 2.9 19.4 14.8 49.1 30.9 56.5 30.7 3.9-.1 4 0 13.3 12.5 10.8 14.6 25.9 37.2 25.2 37.8-.6.6-9.7-4.1-19.9-10.4-10.3-6.4-24.3-16.7-39.2-28.8-5.8-4.8-10.5-8.3-10.5-7.9 0 1.7 8.3 10.9 22 24.4 8.1 8 15.8 16 17.1 17.9l2.3 3.5-9.8-5.2c-5.5-2.9-10.3-5.2-10.8-5.2-.4 0 1 3.7 3.3 8.2l4.1 8.2-2.8-1.9c-5-3.1-11.6-8.7-20.6-17.4-4.9-4.6-8.8-8.1-8.8-7.7s1.8 3 4 5.8c2.3 2.8 3.9 5.3 3.6 5.5-.9 1-24.3-12.5-43.7-25.3-16.2-10.7-44.8-18-78.1-20-6.5-.3-11.8-1-11.8-1.4s.9-3.3 2-6.5 1.8-6.1 1.5-6.3c-.6-.7-.6-.7-3.9 4.8l-2.7 4.5.7-5.2c.4-2.9.3-5.3-.2-5.3s-2 2.8-3.3 6.2c-1.3 3.5-4.7 11.2-7.5 17.2l-5 10.9-1.4-6.2c-.7-3.4-1.7-5.9-2.1-5.6-.5.2-1.6 2.6-2.6 5.2-2.1 5.5-6.1 12.3-7.3 12.3-.5 0-1.6-2.7-2.5-6-1-3.3-2.1-6-2.6-6s-1.9 3-3.1 6.8c-1.3 3.7-2.7 7.1-3.2 7.7-1.1 1.2-8.3-6.7-12.5-13.7-1.5-2.6-3.1-4.8-3.5-4.8s-.8 1.7-1 3.7l-.3 3.8-4-6.3c-13.8-21.9-32.1-47.9-33.1-46.9-.7.6 3.1 10.6 7.9 21 4.3 9 4.4 9.7 2.4 9.2-46-9.7-94.6-32.5-135.2-63.4-13.7-10.4-36.4-33.3-46.3-46.6-4.5-6.1-11.2-16.1-14.9-22.3-3.6-6.1-7-11.2-7.3-11.2-.8 0 1.4 10.2 3.4 16.1.8 2.2 1.2 3.9 1.1 3.9-.8 0-11.9-18.6-16.4-27.5-9.9-19.6-17.3-44.7-19.3-66l-1.1-12 6.2-9.5c10.5-16.2 19.8-36 28.9-61.5 2.6-7.2 8.1-27.1 11.5-41.5 2.9-12 5.8-20.2 8.7-24.5l2.1-3-.7 5.2c-.9 7.4.9 6.7 2.5-1 .7-3.4 3-11.5 5.1-18 2.1-6.4 3.5-11.7 3.1-11.7-.3 0-3.4 5.4-6.9 12s-6.4 12-6.6 12c-.5 0 13.7-57.8 18.9-77.1 5.6-20.9 13.1-44 20.6-63.9 5.8-15 6.1-15.7 12.2-21.5 11.6-11.1 25.1-29.5 33.1-45.1 12-23.5 16.2-47.5 11.2-63.5l-1.4-4.4-.1 8.6c-.2 20.3-7.3 41.3-20.9 62.4-8.3 12.9-23.4 30.4-32.5 37.7l-3.9 3.1 2.5-4.9c7.7-15.5 4.8-28.8-7.7-34.9-4.7-2.3-6.9-2.7-13.4-2.7-7.2.1-11.2.9-28.7 6-4.4 1.2-9.6 1.7-19.5 1.7-13 0-13.8-.1-21-3.3-7.9-3.4-16-9.1-27.2-18.9-15.1-13.4-28.2-15.9-36.9-7.2l-2 2 .6-6.8c1.5-15.6-4.1-43.6-12-59.7-4.3-8.8-4.5-9.8-3.6-13.3 1.3-4.7 1.4-14.3.1-16.3-1.1-1.8-1-2-6 8-6.4 12.8-10.2 18.3-19.5 27.9-6.9 7.2-8.3 9.1-7.8 11 .5 2.1.4 2.2-1.5 1.2-3.4-1.8-5.5-6.8-4.9-11.7.3-3 2.3-7 7.2-14.4 6.3-9.5 14.4-26.5 13.1-27.7-.3-.3-1.5 1.1-2.7 3.1-2.3 4-2.9 4.4-2.4 1.8.2-.9.9-5.3 1.5-9.7 4.7-32.7 17-54.6 47.7-84.6 27.1-26.6 57-46.6 86.3-57.8 10.8-4.1 32.6-9.8 41-10.6 3.6-.3 7.6-.8 8.8-1.1l2.4-.5-2.4 3.1c-7.6 10.2-10.7 14.6-10.7 15.2-.1.4 5.9-2.3 13.2-6 17.7-9 40.8-16.7 51.1-17.1 2.6-.1 2.3.3-3 3.8M396.8 301.3c3.3 7.9 7.2 21 7.2 24.2 0 2.3-12.1 10-24 15.3-11.4 5.2-10.6 5.4-11.4-3.7-.9-10.5.2-21.9 2.3-23.8.9-.8 4.4-3.2 7.8-5.4 3.3-2.2 7.8-6.2 9.9-8.9 2.1-2.8 4.1-5 4.5-5s2.1 3.3 3.7 7.3m10.1 43.4.6 8.8-4.1-4.2c-2.4-2.6-5.3-4.5-7.3-4.9l-3.2-.7 6.3-4.2c3.5-2.4 6.5-4.1 6.7-3.9s.6 4.3 1 9.1m-31.6 9.4c-.4 1.6-.8 1.7-1.4.7-1.3-1.9-1.1-2.8.5-2.8q1.35 0 .9 2.1m16.5 2.2c.2 1.1-.3 1.7-1.7 1.7-2.3 0-3.5-1.5-2.6-3.1 1-1.5 3.9-.6 4.3 1.4m44.2 9.2c3.3 1.6 7.2 4.7 22.4 17.4 7.8 6.6 15.8 10.7 25.2 13.1 12.3 3.2 21.4 2.7 40-2 28.3-7.1 38.6-5 42.3 8.7 1.5 5.4-.6 12.8-6.3 23.2-15.9 28.8-22.4 52-36.1 129.6-15.4 86.7-28.5 126.7-53.9 165-5.9 8.9-11.2 15.2-20.5 24.5-24.1 24-44.8 35-85.8 45.5-9.5 2.5-20.4 5.7-24.1 7.1-8.9 3.5-18.6 10.1-25 16.7-5 5.4-5.1 5.4-4.5 2.3 1.4-7.8 5.7-17.3 24.5-54.9 11-22.1 22.3-44.9 25-50.7 8.1-17.1 24.9-53.1 34.2-73.3 4.7-10.3 12.5-27.1 17.2-37.5 39.3-85.2 64.4-127.6 92.8-157.1 14.7-15.2 27.9-24.2 40.5-27.7 6.9-1.9 8.3-4.6 3.4-6.5-3.6-1.4-15.4-.5-21.8 1.6-7.1 2.4-8.2 3.9-2.1 3.1l4.9-.6-7.4 4.8c-23.4 15.3-47.2 45.8-73.9 94.7-16.6 30.4-31.8 61.6-63.9 131.2-17.6 38.2-32.7 69.6-56.2 116.5-11.4 23-21.8 45-23 49-2.9 9.7-3.5 20.7-1.6 28.5.8 3.5 1.2 6.3.8 6.3-1.6 0-7.5-4.4-11.4-8.4-9.2-9.6-14.4-25.5-13.2-40.6 1.1-15.4 4.4-26.7 28.5-99 13.1-39.3 26.8-81 30.3-92.5 13.8-44.7 16.8-54.7 22.6-75 18.7-65.7 28-107.3 28.1-125.8V396h3.3c6.9 0 12.2-5.4 18.5-19 2.2-4.7 5.1-9.6 6.5-10.9 4.6-4.2 12.2-4.4 19.7-.6m-46.2 15.3c3.7 1.3 4.7 1.3 8.7 0 4.4-1.5 4.4-1.5 3.3.6-1.6 3.2-5 6.6-8.2 8.3-2.7 1.4-3 1.4-5.7-1.4-1.5-1.5-3.5-4.5-4.4-6.7-1.6-3.7-1.6-3.8.2-3.1 1 .4 3.7 1.5 6.1 2.3m258.5 570.7c7.6 3.3 9.4 4.5 13.8 9.8 4.6 5.5 5 6.4 4.4 9.6-.4 1.9-1.4 4.9-2.2 6.5l-1.6 3.1-4.1-4.8c-2.3-2.6-4.5-4.7-4.8-4.7-.4 0-.9 1.5-1.3 3.2-1.4 7.3-1.4 7.2-4.2 4.6-1.4-1.2-4.3-4.9-6.4-8.1-4.4-6.3-5.9-7.1-5.9-3 0 2-2.2-1-9.1-12.3-13.7-22.4-13.7-21 .4-13.8 6.7 3.4 16.1 7.9 21 9.9m48.8 16.4c6.3 1.7 14.2 3.5 17.6 4.2 5.9 1.1 6.4 1.4 8.8 5.5 1.4 2.5 4.9 7.4 7.7 11.1l5.1 6.8-.6 9.6c-.8 12.2-4.7 31.9-9.2 45.8-4.6 14.3-8.6 18.3-20.9 21.1-6.3 1.4-59.8 9.2-60.2 8.8-.2-.3 4-1.4 9.4-2.7 24.5-5.8 28.3-12.4 13.1-22.7-7.1-4.9-8.9-7.8-8.9-14.5 0-6 3.2-20.4 8-35.2 2.7-8.7 5-17.7 5-19.9 0-3.3.3-3.9 1.2-3 .7.7 1.8 1.2 2.5 1.2 1.2 0 9.3-15.5 9.3-17.8 0-1.5-1.1-1.7 12.1 1.7M651.6 988c.8 0 1.9-1.1 2.4-2.5l1-2.6 4 4.2 3.9 4.2-4 12.1c-2.2 6.6-4.8 16.4-5.9 21.8-3.2 15.7-2.1 31.7 2.3 32.4 1.8.2 12 7.4 11.4 8-.2.2-13.2 3.7-28.9 7.8-15.8 4.2-44.8 12.2-64.5 18-53.3 15.5-50.4 14.7-46.8 12 6.3-4.9 35.6-17.4 66.8-28.4 8.1-2.9 14.6-5.5 14.3-5.7-.2-.2-3.5.3-7.2 1.2-20.7 4.8-41.9 13.3-63.4 25.4-6.9 3.9-12.7 7.1-13 7.1s-.6-1.2-.7-2.7c-.2-3.6-5-7.7-11.1-9.4-3.6-1-4.2-1.4-2.6-2 1.6-.7 1.5-.8-.7-.8-1.4-.1-5 .3-8 .8-9.2 1.6-20.8 2.2-17.9 1 8.1-3.4 39.8-10.8 74-17.3 30.7-5.9 37-7.2 37.8-8.1.4-.4-2.9-.4-7.3 0-18.8 1.6-60.4 9.5-81.5 15.4-5.8 1.6-9.8 2.4-8.9 1.8.8-.7 2.4-2.4 3.3-4 1.7-2.5 1.7-2.9.2-5.2l-1.6-2.5 3.7-.1c8.8-.2 8.6-1.7-.2-1.9-4.9-.1-10.3-.6-12-1l-3-.7 3.5-.6c7.1-1.4 21.2-2.6 43.6-3.7 72-3.4 70.1-3.2 81.1-6.6 5-1.6 5.3-1.6 9.6.5 2.4 1.1 5.7 2.1 7.3 2.1 2.6-.1 2.4-.3-2.4-2.6-2.9-1.4-5.2-3-5-3.6.5-1.3.4-1.3 6.7.1 3 .6 5.6.9 5.9.7.2-.3-1.6-1.5-4-2.7l-4.4-2.1 3.3-8.9c5.8-15.6 9.3-31.1 10-44.6l.6-12.3 3.4 3c1.8 1.7 4 3 4.9 3m103.2 13.8c.9-.2 2.4-1.8 3.2-3.5 1.8-3.9 2.2-4 3.5-1.1.6 1.3 1.9 2.4 3.1 2.6 1.9.3 2 .7 1.3 5-.4 2.6-1.8 7.2-2.9 10.2-3.3 8.5-8.7 30.5-9.9 40.6-.8 6.5-.8 10.7 0 14.9 1.4 7.9 2.8 11.3 3.8 9.6.6-1 2.3-.1 6.9 3.4 3.4 2.5 6.4 5 6.7 5.4.8 1.4-1.4 2.6-13.5 7.6-14.3 5.8-40.1 17.3-67 29.8-24.3 11.2-38.1 17.1-43.3 18.5-3.5 1-3.7.9-2.5-.5 2.8-3.5 19.4-16.7 29.1-23.1 9.7-6.5 35.4-22 42.5-25.6 6.4-3.3 2.4-2.7-6.4.9-21.6 8.9-51.4 27.9-66.2 42.1l-5.2 5.1-2-3.3c-5.1-8.2-16.7-15.2-26.9-16.3-6.2-.7-6-1 1.6-3.5 6-2 8.4-4.2 3.3-3.1-1.8.4-7.3 2-12.4 3.7-10.4 3.4-23.1 5.4-20.1 3.2s25.9-10.8 43.1-16.2c21.9-6.9 27-8.4 49.6-14.1 20-5 27.6-7.7 18.8-6.5-20 2.6-58.3 12.1-80.3 19.9-9.1 3.2-9.7 3.3-8.6 1.4.6-1.1.8-3.1.5-4.4-.6-2.4-1-2.3 10.2-4 7.1-1.1 3.3-2.3-4.3-1.4-3.8.4-10.1.8-14 .7-6.1 0-6.5-.1-3.5-.9 15.9-4 50.6-9.8 80-13.4 24.8-3.1 35.5-5 42.4-7.5l5.1-2 4.9 2.5c3 1.5 6.5 2.5 9 2.4 3.8 0 3.9-.1 1.6-1.1-8.5-3.4-11-4.9-11-6.4 0-1.2.6-1.5 2.3-1 1.2.4 4.2.9 6.7 1.2l4.5.5-4-2.2c-2.2-1.2-4.2-2.3-4.3-2.4-.2-.2 1.4-5.7 3.7-12.2 5.9-17.2 10.3-40.2 10.3-53.1l-.1-10.3 4.5 4.1c2.5 2.3 5.3 4 6.2 3.8m-111.5 79.9c-.7.2-1.9.2-2.5 0-.7-.3-.2-.5 1.2-.5s1.9.2 1.3.5"/><path d="M446.3 260.5c-.9 2.4 2.5 10 6.9 15.6l4 5.1-2.1 5.1c-2.7 6.6-5.1 19.2-5.1 26.6 0 5.2-.3 5.9-2.5 6.9-3.3 1.5-3.2 2.4.5 4.5 2.2 1.3 3 2.6 3 4.5 0 8.7 7.3 25.8 15.9 37.3 7.5 10.1 16.4 15.3 28.2 16.6 4.1.4 5.9.2 5.9-.6 0-.6-1.2-1.1-2.6-1.1-4.6 0-12.9-3-18.5-6.6-3-2-4.5-3.3-3.4-2.9s3.9 1.4 6.3 2.2c6.7 2.3 20.1 1.3 27.6-2.1 10.7-4.9 20.5-16.3 24.5-28.7.9-2.7 2-3.8 4.9-4.9 4.4-1.5 8.2-3.9 8.2-5 0-.5-9.3-.8-20.7-.7-24.3.2-37.5-1.7-58.8-8.3-7-2.2-12.9-4-13.1-4s-.4-3.2-.4-7c0-7.5 2.3-20.3 4.6-25.8l1.4-3.3 3.2 2.5c5.2 3.9 19.6 10.4 28.3 12.7 14 3.7 44.5 3.6 44.5-.1 0-.5-2.1-1.2-4.7-1.5-20.4-2.7-37.1-7.4-50.4-14-9.3-4.7-22-13.8-28.4-20.4-4.1-4.3-6.2-5.1-7.2-2.6m18.9 71.5 6.7 2.4-2.9 1.7c-3 1.8-6 6.6-6 9.4 0 5.1-3.8-2.8-5.9-12.3-.7-3.2-.6-4.2.2-3.9.7.2 4.2 1.4 7.9 2.7m63.8 11.6c-3.1 8.1-11.6 18.1-18.2 21.5-2 1-3.9 1.9-4.1 1.9-.3 0 .1-1.7.9-3.8 2.4-6.6 1-15.7-3-20.1-.9-1-1.6-1.9-1.6-2.2 0-.2 6.1-.3 13.5-.1l13.4.3zm-42.1 1.2c.7 1.3.6 2.3-.1 3-2.5 2.5-6.8.6-6.8-3 0-2.5 5.6-2.5 6.9 0m145.5-57.3c2.2 5.9 4.7 17.9 4.4 21.2l-.3 3.7-2.8-4.3c-1.6-2.4-3-4.1-3.2-3.9-.1.1.4 3.9 1.2 8.3.9 4.9 1.3 12.5 1.1 19.7-.2 6.4 0 11.4.3 11.2 1.6-1 3.1-14.2 2.6-22.3-.5-7.7-.4-8.4.9-6.7.7 1.1 1.4 2.6 1.4 3.3s.5 1.3 1.1 1.3c2.1 0 .4-16.7-2.4-24.4-1.4-3.7-3.1-7.3-3.8-8-.9-.8-1-.6-.5.9m-94.3 305.9c-1.8 3.2-4.1 9.2-5.2 13.4-1.8 7.3-1.8 9.6 0 7.6 1.3-1.3 9.2-24.5 8.8-25.8-.2-.5-1.8 1.7-3.6 4.8m3.9 10.7c-1.1 1.9-2.7 5.6-3.5 8.3-1.8 5.9-3.1 15.4-2 14.3 1.2-1 8.7-24.9 8.1-25.5-.3-.2-1.4 1.1-2.6 2.9m93.1 90.5c-.1 1.2 1 6.1 2.4 10.8 5.7 19.7 14.6 37.1 24.3 47.5l5.2 5.6-6-9.5c-8.5-13.2-16.3-29.3-21.5-44-2.4-6.9-4.4-11.5-4.4-10.4M880.7 705c2.8 4.1 6.3 10 7.8 13l2.7 5.5-2.6-2.4c-1.4-1.4-2.6-2.1-2.6-1.8 0 .4 1.8 4.2 3.9 8.5 4.6 9.2 7.1 17.1 7.1 22.7 0 10.1-7.5 8.6-22.6-4.6-3.4-3-7.6-7.1-9.4-9.2-4.8-5.5-4.8-3.8-.1 3.2 8.8 12.9 16.1 30.3 16.1 38.2 0 3.3-2.3 5.9-5.3 5.9-6.6 0-20.7-9.6-33.5-22.9-7.9-8.1-7.9-8.1 3 9.2 6.1 9.6 7.8 11.5 5.8 6.2l-1-2.7 2.7 2.2c12.7 9.8 21.7 13.4 27.1 10.6 3.5-1.8 4.2-3.3 4.2-8.8 0-4.5-4.1-17.5-7.1-22.7l-2-3.4 2.3 1.6c10.6 7.6 16.5 9.3 20.3 5.7 3.5-3.3 3.3-10.1-.4-20.8-1.6-4.5-2.5-8.2-2-8.2 3.8 0-8.5-22.5-16.1-29.5-2.9-2.7-2.7-2.2 1.7 4.5M505 747.5c0 4.8 3 20.4 5.1 26.9 4.6 13.6 12.8 26.5 20 31.7 2.8 2 2.7 1.7-1.4-4.3-11.3-16.3-18.1-31.8-20.8-47.3-1.3-8.1-2.8-11.7-2.9-7m20.6 2.7c1.2 8.1 6.4 22.5 10.2 28.4 3.7 5.7 12.4 14.4 14.5 14.4.6 0 .8-2.4.4-6.5-.4-3.6-.5-6.5-.3-6.5s2.2 2.7 4.6 6.1c2.3 3.3 4.5 5.8 4.7 5.5.3-.3-1.3-3.6-3.5-7.3-2.3-3.7-5.3-9.5-6.8-12.8s-2.9-5.4-3.2-4.7c-.4 1.2 1.1 13.6 2.4 20.2.5 2.2 0 1.9-3.6-2-7.2-7.7-14.4-22-17.2-33.9-1.4-6.2-3.1-6.8-2.2-.9m177 0c.3 1.3 1.3 3.5 2.1 5.1 2.9 5.8 10.2 26.4 10.8 30.9.6 4 .4 4.9-.9 5.4-2 .8-7.5-1.5-13.7-5.6-5.8-3.9-21.9-20-28.1-28.2-2.9-3.7-5.4-6.6-5.6-6.3-.3.2 1.9 4.3 4.9 9.1 9.7 15.5 27.5 31.6 38.1 34.5 5.8 1.5 8.8-.7 8.8-6.4 0-2.3-.4-5.8-1-7.6-.5-1.9-.6-3-.2-2.5.5.5 3.9 4.7 7.8 9.3C738.9 804 758 818 766.5 818c7.1 0 8.5-8.1 3.4-20.5l-2.5-6 10 10c11 10.9 20.2 17.4 28.9 20.5 12.3 4.3 16.7 1.5 15.9-10.3-.3-4.4-2.2-3.1-2.2 1.6 0 5.2-1.3 6.7-6 6.7-6.8 0-20.1-7.8-32.3-19-7.5-6.9-19.9-22-26.6-32.3-2.4-3.7-4.6-6.6-4.8-6.3-.2.2 2.5 6.3 6.2 13.5 14.2 28.5 16.7 39.1 9.1 39.1-6.4 0-13.5-4.7-25.6-16.9-15.1-15.1-23.7-26.5-34.4-45.4-2.9-5-4.2-6.1-3-2.5m94.7 14.5c.3.5 3.9 6.9 8.2 14.3 8.7 15 11.5 19.3 12.2 18.7.2-.3-.3-1.9-1.2-3.7-1.4-2.7-.4-2.1 6.5 3.9 10.3 8.8 20.4 14.1 27.1 14.1 6.8 0 8.9-2.3 8.8-9.3-.1-7.9-1.7-10.7-1.8-3.1-.1 9.6-3.2 11.2-13.6 7.3-11.1-4.1-27.2-18.4-40.1-35.5-3-4.1-5.7-7.4-6-7.4s-.3.3-.1.7m-264.7 38.5c1.4 4.9 3.2 8.4 4.7 9.7 2.3 1.8 2.2 1.2-1.3-5.8-3.1-6.2-4.7-8-3.4-3.9M686 835.5c0 2.8 19.5 24.3 20.9 23 .2-.3-1-2.5-2.7-4.9s-3.6-5.6-4.2-7c-.5-1.5-2.2-3.1-3.7-3.7-1.6-.6-4.5-2.7-6.5-4.7-2.1-2-3.8-3.2-3.8-2.7m-109.1 44.3c3.2 4.5 16.5 16.8 21.2 19.5 6.4 3.8 11.9 5.9 11.9 4.7 0-.6-1.4-1.9-3.1-2.8-5.2-2.8-18.5-12.8-24.9-18.7-6.7-6.1-8.1-6.9-5.1-2.7m160.6 3.1c4.9 5.6 29.5 18.4 29.5 15.4 0-.5-2.1-1.9-4.7-3.2-2.7-1.3-9.3-4.8-14.8-7.9-12.1-6.9-12.5-7.1-10-4.3M600 889c0 1.4 9.7 8.8 15.3 11.7 2.7 1.3 4.8 2 4.6 1.5-.6-1.4-19.9-14.2-19.9-13.2m178.1 8.6c9.3 10 35.8 28.3 39.2 27.1.7-.2-3.5-3.5-9.3-7.2s-15.1-10.3-20.7-14.7c-10.6-8.1-13.4-9.7-9.2-5.2m59.9 25.3c0 1 12.4 11.5 20.5 17.3 6 4.3 15.5 9.2 16.3 8.4.7-.7 1.5-.1-10.3-8.1-5.5-3.8-13.1-9.2-17-12-8.8-6.4-9.5-6.8-9.5-5.6m-17.8 1.2c.5 1.5 10.7 7.7 14.1 8.5 5 1.2 2.8-1.2-5.2-5.4-8.3-4.5-9.5-4.9-8.9-3.1m45.8 41.3c0 1.7 25.7 14.6 29 14.6 2.2 0 .8-2.1-2.2-3.4-1.8-.8-8.3-3.7-14.3-6.5-10.6-4.9-12.5-5.6-12.5-4.7m20 2.3c0 1.9 5.8 6.2 12.4 9.2 11.3 5.1 13.4 3.4 2.3-1.9-3.4-1.6-8.1-4.1-10.4-5.6-2.4-1.4-4.3-2.2-4.3-1.7m28.7 21.7c4.3 5.1 34.3 24.6 31.9 20.8-1.4-2.3-32.4-24.2-34.2-24.2-.3 0 .7 1.5 2.3 3.4M409.5 391.2c-10.1 49.4-29 125.1-44.2 176.8-17.1 58.5-27 89-53.7 165.4-6.9 19.8-12.6 36.4-12.6 37 0 3.2 3-3.6 11.5-26.4 25.5-67.7 56.8-170.2 78.4-256.5 12.6-50.6 23-97.9 21.8-99.1-.3-.3-.8 1-1.2 2.8m26.6 7.7c-3.5 3.7-7 12.8-7.8 20.1-.7 6.9 1.1 9 2.6 3.3 1.6-5.7 4.8-10.4 6.6-9.7 1.1.4 2.1-.6 3.5-3.7 2.6-5.9 2.6-10.5 0-11.9-1.8-.9-2.5-.7-4.9 1.9m107.2 39.4c-5.4 5.8-16.3 24-15.1 25.3.3.3 2.9-3.2 5.7-7.8s7-10.9 9.3-14c4.7-6.5 4.8-8.5.1-3.5"/></svg>